999
"DXF R12 Output" (www.mydxf.blogspot.com)
 0 
SECTION
 2 
HEADER
 9 
$ACADVER
 1 
AC1009
 9 
$EXTMIN
 10 
 0 
 20 
 0 
 9 
$EXTMAX
 10 
 8.5 
 20 
 11 
 0 
ENDSEC
 0 
SECTION
 2 
ENTITIES
0
POLYLINE
8
Layer 1
62
7
70
0
10
0.000000
20
0.000000
66
1
0
VERTEX
8
Layer 1
10
26.212713
20
28.271208
70
0
0
VERTEX
8
Layer 1
10
26.212713
20
17.586881
70
0
0
VERTEX
8
Layer 1
10
32.170035
20
17.586881
70
0
0
VERTEX
8
Layer 1
10
32.752816
20
20.630295
70
0
0
VERTEX
8
Layer 1
10
34.609083
20
20.630295
70
0
0
VERTEX
8
Layer 1
10
34.015172
20
18.974866
70
0
0
VERTEX
8
Layer 1
10
33.083329
20
17.488402
70
0
0
VERTEX
8
Layer 1
10
31.849977
20
16.194175
70
0
0
VERTEX
8
Layer 1
10
30.351541
20
15.115456
70
0
0
VERTEX
8
Layer 1
10
28.624444
20
14.275515
70
0
0
VERTEX
8
Layer 1
10
26.705109
20
13.697624
70
0
0
VERTEX
8
Layer 1
10
24.629962
20
13.405053
70
0
0
VERTEX
8
Layer 1
10
22.435425
20
13.421072
70
0
0
VERTEX
8
Layer 1
10
20.300162
20
13.713475
70
0
0
VERTEX
8
Layer 1
10
18.202840
20
14.266915
70
0
0
VERTEX
8
Layer 1
10
16.219848
20
15.081393
70
0
0
VERTEX
8
Layer 1
10
14.427576
20
16.156908
70
0
0
VERTEX
8
Layer 1
10
12.902412
20
17.493461
70
0
0
VERTEX
8
Layer 1
10
11.720745
20
19.091051
70
0
0
VERTEX
8
Layer 1
10
10.958964
20
20.949679
70
0
0
VERTEX
8
Layer 1
10
10.693457
20
23.069344
70
0
0
VERTEX
8
Layer 1
10
10.966468
20
25.421211
70
0
0
VERTEX
8
Layer 1
10
11.720070
20
27.500912
70
0
0
VERTEX
8
Layer 1
10
12.880406
20
29.299339
70
0
0
VERTEX
8
Layer 1
10
14.373615
20
30.807387
70
0
0
VERTEX
8
Layer 1
10
16.125838
20
32.015951
70
0
0
VERTEX
8
Layer 1
10
18.063215
20
32.915923
70
0
0
VERTEX
8
Layer 1
10
20.111888
20
33.498199
70
0
0
VERTEX
8
Layer 1
10
22.197996
20
33.753671
70
0
0
VERTEX
8
Layer 1
10
25.042091
20
33.579646
70
0
0
VERTEX
8
Layer 1
10
27.904398
20
32.863311
70
0
0
VERTEX
8
Layer 1
10
30.633151
20
31.653230
70
0
0
VERTEX
8
Layer 1
10
33.076584
20
29.997968
70
0
0
VERTEX
8
Layer 1
10
33.314013
20
29.803708
70
0
0
VERTEX
8
Layer 1
10
33.508274
20
29.652616
70
0
0
VERTEX
8
Layer 1
10
33.680950
20
29.523109
70
0
0
VERTEX
8
Layer 1
10
40.307391
20
29.523109
70
0
0
VERTEX
8
Layer 1
10
40.307391
20
41.373000
70
0
0
VERTEX
8
Layer 1
10
33.421936
20
41.373000
70
0
0
VERTEX
8
Layer 1
10
33.421936
20
38.070571
70
0
0
VERTEX
8
Layer 1
10
31.025045
20
39.264801
70
0
0
VERTEX
8
Layer 1
10
28.104055
20
40.291077
70
0
0
VERTEX
8
Layer 1
10
24.750026
20
41.005726
70
0
0
VERTEX
8
Layer 1
10
21.054017
20
41.265077
70
0
0
VERTEX
8
Layer 1
10
18.870400
20
41.146911
70
0
0
VERTEX
8
Layer 1
10
16.717894
20
40.813489
70
0
0
VERTEX
8
Layer 1
10
14.613447
20
40.272148
70
0
0
VERTEX
8
Layer 1
10
12.574007
20
39.530223
70
0
0
VERTEX
8
Layer 1
10
10.616521
20
38.595050
70
0
0
VERTEX
8
Layer 1
10
8.757935
20
37.473962
70
0
0
VERTEX
8
Layer 1
10
7.015197
20
36.174297
70
0
0
VERTEX
8
Layer 1
10
5.405255
20
34.703390
70
0
0
VERTEX
8
Layer 1
10
4.224052
20
33.391499
70
0
0
VERTEX
8
Layer 1
10
3.191832
20
32.019155
70
0
0
VERTEX
8
Layer 1
10
2.311884
20
30.594704
70
0
0
VERTEX
8
Layer 1
10
1.587497
20
29.126494
70
0
0
VERTEX
8
Layer 1
10
1.021957
20
27.622873
70
0
0
VERTEX
8
Layer 1
10
0.618555
20
26.092186
70
0
0
VERTEX
8
Layer 1
10
0.380577
20
24.542781
70
0
0
VERTEX
8
Layer 1
10
0.311313
20
22.983006
70
0
0
VERTEX
8
Layer 1
10
0.411732
20
21.462732
70
0
0
VERTEX
8
Layer 1
10
0.677575
20
19.967247
70
0
0
VERTEX
8
Layer 1
10
1.104290
20
18.505150
70
0
0
VERTEX
8
Layer 1
10
1.687325
20
17.085041
70
0
0
VERTEX
8
Layer 1
10
2.422125
20
15.715522
70
0
0
VERTEX
8
Layer 1
10
3.304139
20
14.405191
70
0
0
VERTEX
8
Layer 1
10
4.328812
20
13.162649
70
0
0
VERTEX
8
Layer 1
10
5.491593
20
11.996495
70
0
0
VERTEX
8
Layer 1
10
7.148962
20
10.651090
70
0
0
VERTEX
8
Layer 1
10
8.964674
20
9.485274
70
0
0
VERTEX
8
Layer 1
10
10.914952
20
8.506636
70
0
0
VERTEX
8
Layer 1
10
12.976018
20
7.722764
70
0
0
VERTEX
8
Layer 1
10
15.124098
20
7.141248
70
0
0
VERTEX
8
Layer 1
10
17.335413
20
6.769674
70
0
0
VERTEX
8
Layer 1
10
19.586187
20
6.615631
70
0
0
VERTEX
8
Layer 1
10
21.852644
20
6.686709
70
0
0
VERTEX
8
Layer 1
10
25.275136
20
7.097151
70
0
0
VERTEX
8
Layer 1
10
28.446709
20
7.736255
70
0
0
VERTEX
8
Layer 1
10
31.310702
20
8.589854
70
0
0
VERTEX
8
Layer 1
10
33.810457
20
9.643785
70
0
0
VERTEX
8
Layer 1
10
33.810457
20
8.478222
70
0
0
VERTEX
8
Layer 1
10
41.106018
20
8.478222
70
0
0
VERTEX
8
Layer 1
10
41.106018
20
20.608711
70
0
0
VERTEX
8
Layer 1
10
42.854363
20
20.608711
70
0
0
VERTEX
8
Layer 1
10
42.854363
20
7.118398
70
0
0
VERTEX
8
Layer 1
10
39.357674
20
7.118398
70
0
0
VERTEX
8
Layer 1
10
39.357674
20
0.232943
70
0
0
VERTEX
8
Layer 1
10
55.524464
20
0.232943
70
0
0
VERTEX
8
Layer 1
10
55.524464
20
7.118398
70
0
0
VERTEX
8
Layer 1
10
52.027775
20
7.118398
70
0
0
VERTEX
8
Layer 1
10
52.027775
20
20.630295
70
0
0
VERTEX
8
Layer 1
10
59.409674
20
20.630295
70
0
0
VERTEX
8
Layer 1
10
59.949287
20
17.586881
70
0
0
VERTEX
8
Layer 1
10
65.928193
20
17.586881
70
0
0
VERTEX
8
Layer 1
10
65.928193
20
28.271209
70
0
0
VERTEX
8
Layer 1
10
26.212713
20
28.271209
70
0
0
VERTEX
8
Layer 1
10
26.212713
20
28.271208
70
0
0
SEQEND
8
Layer 1
0
POLYLINE
8
Layer 1
62
7
70
0
10
0.000000
20
0.000000
66
1
0
VERTEX
8
Layer 1
10
27.378276
20
18.752444
70
0
0
VERTEX
8
Layer 1
10
31.177148
20
18.752444
70
0
0
VERTEX
8
Layer 1
10
31.759929
20
21.795858
70
0
0
VERTEX
8
Layer 1
10
35.990491
20
21.795858
70
0
0
VERTEX
8
Layer 1
10
35.882569
20
21.126739
70
0
0
VERTEX
8
Layer 1
10
35.340849
20
19.118327
70
0
0
VERTEX
8
Layer 1
10
34.377725
20
17.305945
70
0
0
VERTEX
8
Layer 1
10
33.039233
20
15.719695
70
0
0
VERTEX
8
Layer 1
10
31.371408
20
14.389677
70
0
0
VERTEX
8
Layer 1
10
29.420288
20
13.345990
70
0
0
VERTEX
8
Layer 1
10
27.231906
20
12.618736
70
0
0
VERTEX
8
Layer 1
10
24.852299
20
12.238014
70
0
0
VERTEX
8
Layer 1
10
22.327503
20
12.233925
70
0
0
VERTEX
8
Layer 1
10
19.997136
20
12.558704
70
0
0
VERTEX
8
Layer 1
10
17.707745
20
13.176898
70
0
0
VERTEX
8
Layer 1
10
15.542803
20
14.088506
70
0
0
VERTEX
8
Layer 1
10
13.585780
20
15.293528
70
0
0
VERTEX
8
Layer 1
10
11.920148
20
16.791964
70
0
0
VERTEX
8
Layer 1
10
10.629379
20
18.583815
70
0
0
VERTEX
8
Layer 1
10
9.796942
20
20.669080
70
0
0
VERTEX
8
Layer 1
10
9.578683
20
21.821743
70
0
0
VERTEX
8
Layer 1
10
9.506310
20
23.047759
70
0
0
VERTEX
8
Layer 1
10
9.761150
20
25.397477
70
0
0
VERTEX
8
Layer 1
10
10.480648
20
27.579493
70
0
0
VERTEX
8
Layer 1
10
11.621549
20
29.553589
70
0
0
VERTEX
8
Layer 1
10
13.140600
20
31.279548
70
0
0
VERTEX
8
Layer 1
10
14.994549
20
32.717152
70
0
0
VERTEX
8
Layer 1
10
17.140141
20
33.826182
70
0
0
VERTEX
8
Layer 1
10
19.534123
20
34.566421
70
0
0
VERTEX
8
Layer 1
10
22.133242
20
34.897650
70
0
0
VERTEX
8
Layer 1
10
23.649554
20
34.883612
70
0
0
VERTEX
8
Layer 1
10
25.190147
20
34.716543
70
0
0
VERTEX
8
Layer 1
10
28.263241
20
33.950630
70
0
0
VERTEX
8
Layer 1
10
31.190638
20
32.654548
70
0
0
VERTEX
8
Layer 1
10
33.810457
20
30.882933
70
0
0
VERTEX
8
Layer 1
10
33.961548
20
30.753426
70
0
0
VERTEX
8
Layer 1
10
34.069471
20
30.667088
70
0
0
VERTEX
8
Layer 1
10
39.098659
20
30.667088
70
0
0
VERTEX
8
Layer 1
10
39.098659
20
40.207437
70
0
0
VERTEX
8
Layer 1
10
34.565914
20
40.207437
70
0
0
VERTEX
8
Layer 1
10
34.565914
20
36.063213
70
0
0
VERTEX
8
Layer 1
10
33.594612
20
36.559656
70
0
0
VERTEX
8
Layer 1
10
31.363652
20
37.841236
70
0
0
VERTEX
8
Layer 1
10
28.470991
20
38.977120
70
0
0
VERTEX
8
Layer 1
10
25.031973
20
39.789237
70
0
0
VERTEX
8
Layer 1
10
23.143625
20
40.018235
70
0
0
VERTEX
8
Layer 1
10
21.161940
20
40.099514
70
0
0
VERTEX
8
Layer 1
10
21.075602
20
40.099514
70
0
0
VERTEX
8
Layer 1
10
18.998052
20
39.987334
70
0
0
VERTEX
8
Layer 1
10
16.952625
20
39.671534
70
0
0
VERTEX
8
Layer 1
10
14.955258
20
39.158945
70
0
0
VERTEX
8
Layer 1
10
13.021885
20
38.456394
70
0
0
VERTEX
8
Layer 1
10
11.168443
20
37.570713
70
0
0
VERTEX
8
Layer 1
10
9.410866
20
36.508731
70
0
0
VERTEX
8
Layer 1
10
7.765090
20
35.277276
70
0
0
VERTEX
8
Layer 1
10
6.247050
20
33.883178
70
0
0
VERTEX
8
Layer 1
10
4.184719
20
31.385110
70
0
0
VERTEX
8
Layer 1
10
2.682910
20
28.694804
70
0
0
VERTEX
8
Layer 1
10
2.152951
20
27.298430
70
0
0
VERTEX
8
Layer 1
10
1.776024
20
25.879039
70
0
0
VERTEX
8
Layer 1
10
1.556427
20
24.444976
70
0
0
VERTEX
8
Layer 1
10
1.498460
20
23.004590
70
0
0
VERTEX
8
Layer 1
10
1.591923
20
21.604633
70
0
0
VERTEX
8
Layer 1
10
1.837405
20
20.226935
70
0
0
VERTEX
8
Layer 1
10
2.769248
20
17.570693
70
0
0
VERTEX
8
Layer 1
10
4.263637
20
15.100616
70
0
0
VERTEX
8
Layer 1
10
6.290219
20
12.881460
70
0
0
VERTEX
8
Layer 1
10
7.853789
20
11.611895
70
0
0
VERTEX
8
Layer 1
10
9.567354
20
10.511549
70
0
0
VERTEX
8
Layer 1
10
11.408908
20
9.587758
70
0
0
VERTEX
8
Layer 1
10
13.356445
20
8.847857
70
0
0
VERTEX
8
Layer 1
10
15.387960
20
8.299180
70
0
0
VERTEX
8
Layer 1
10
17.481445
20
7.949064
70
0
0
VERTEX
8
Layer 1
10
19.614896
20
7.804845
70
0
0
VERTEX
8
Layer 1
10
21.766306
20
7.873856
70
0
0
VERTEX
8
Layer 1
10
25.392502
20
8.319711
70
0
0
VERTEX
8
Layer 1
10
28.711119
20
9.028627
70
0
0
VERTEX
8
Layer 1
10
31.649309
20
9.980368
70
0
0
VERTEX
8
Layer 1
10
34.134224
20
11.154700
70
0
0
VERTEX
8
Layer 1
10
35.019189
20
11.672728
70
0
0
VERTEX
8
Layer 1
10
34.997604
20
9.665369
70
0
0
VERTEX
8
Layer 1
10
39.918870
20
9.665369
70
0
0
VERTEX
8
Layer 1
10
39.918870
20
21.795858
70
0
0
VERTEX
8
Layer 1
10
44.019925
20
21.795858
70
0
0
VERTEX
8
Layer 1
10
44.019925
20
5.952835
70
0
0
VERTEX
8
Layer 1
10
40.523237
20
5.952835
70
0
0
VERTEX
8
Layer 1
10
40.523237
20
1.420090
70
0
0
VERTEX
8
Layer 1
10
54.337317
20
1.420090
70
0
0
VERTEX
8
Layer 1
10
54.337317
20
5.952835
70
0
0
VERTEX
8
Layer 1
10
50.840628
20
5.952835
70
0
0
VERTEX
8
Layer 1
10
50.840628
20
21.795858
70
0
0
VERTEX
8
Layer 1
10
60.380977
20
21.795858
70
0
0
VERTEX
8
Layer 1
10
60.920589
20
18.752444
70
0
0
VERTEX
8
Layer 1
10
64.741045
20
18.752444
70
0
0
VERTEX
8
Layer 1
10
64.741045
20
27.105645
70
0
0
VERTEX
8
Layer 1
10
27.378276
20
27.105645
70
0
0
VERTEX
8
Layer 1
10
27.378276
20
18.752444
70
0
0
VERTEX
8
Layer 1
10
27.378276
20
18.752444
70
0
0
SEQEND
8
Layer 1
 0 
ENDSEC
 0 
EOF